<mxfile host="app.diagrams.net" modified="2023-03-15T21:48:22.580Z" agent="5.0 (Windows NT 10.0; Win64; x64) AppleWebKit/537.36 (KHTML, like Gecko) Chrome/111.0.0.0 Safari/537.36" etag="Qk-tfy102-e-3H8xbajx" version="21.0.6" type="github">
  <diagram name="Page-1" id="YcBnKlAvs5U3NL9JTJcr">
    <mxGraphModel dx="365" dy="630" grid="1" gridSize="10" guides="1" tooltips="1" connect="1" arrows="1" fold="1" page="1" pageScale="1" pageWidth="850" pageHeight="1100" math="0" shadow="0">
      <root>
        <mxCell id="0" />
        <mxCell id="1" parent="0" />
        <mxCell id="pt2DLm01EVH_HfQgXivq-1" value="" style="rounded=1;whiteSpace=wrap;html=1;" vertex="1" parent="1">
          <mxGeometry x="30" y="100" width="100" height="370" as="geometry" />
        </mxCell>
        <mxCell id="pt2DLm01EVH_HfQgXivq-2" value="" style="ellipse;whiteSpace=wrap;html=1;aspect=fixed;" vertex="1" parent="1">
          <mxGeometry x="40" y="110" width="80" height="80" as="geometry" />
        </mxCell>
        <mxCell id="pt2DLm01EVH_HfQgXivq-3" value="" style="ellipse;whiteSpace=wrap;html=1;aspect=fixed;" vertex="1" parent="1">
          <mxGeometry x="40" y="200" width="80" height="80" as="geometry" />
        </mxCell>
        <mxCell id="pt2DLm01EVH_HfQgXivq-4" value="" style="ellipse;whiteSpace=wrap;html=1;aspect=fixed;" vertex="1" parent="1">
          <mxGeometry x="40" y="290" width="80" height="80" as="geometry" />
        </mxCell>
        <mxCell id="pt2DLm01EVH_HfQgXivq-5" value="" style="ellipse;whiteSpace=wrap;html=1;aspect=fixed;" vertex="1" parent="1">
          <mxGeometry x="40" y="380" width="80" height="80" as="geometry" />
        </mxCell>
        <mxCell id="pt2DLm01EVH_HfQgXivq-6" value="" style="rounded=1;whiteSpace=wrap;html=1;" vertex="1" parent="1">
          <mxGeometry x="170" y="50" width="100" height="460" as="geometry" />
        </mxCell>
        <mxCell id="pt2DLm01EVH_HfQgXivq-7" value="" style="ellipse;whiteSpace=wrap;html=1;aspect=fixed;" vertex="1" parent="1">
          <mxGeometry x="180" y="150" width="80" height="80" as="geometry" />
        </mxCell>
        <mxCell id="pt2DLm01EVH_HfQgXivq-8" value="" style="ellipse;whiteSpace=wrap;html=1;aspect=fixed;" vertex="1" parent="1">
          <mxGeometry x="180" y="240" width="80" height="80" as="geometry" />
        </mxCell>
        <mxCell id="pt2DLm01EVH_HfQgXivq-9" value="" style="ellipse;whiteSpace=wrap;html=1;aspect=fixed;" vertex="1" parent="1">
          <mxGeometry x="180" y="330" width="80" height="80" as="geometry" />
        </mxCell>
        <mxCell id="pt2DLm01EVH_HfQgXivq-10" value="" style="ellipse;whiteSpace=wrap;html=1;aspect=fixed;" vertex="1" parent="1">
          <mxGeometry x="180" y="420" width="80" height="80" as="geometry" />
        </mxCell>
        <mxCell id="pt2DLm01EVH_HfQgXivq-11" value="" style="ellipse;whiteSpace=wrap;html=1;aspect=fixed;" vertex="1" parent="1">
          <mxGeometry x="180" y="60" width="80" height="80" as="geometry" />
        </mxCell>
        <mxCell id="pt2DLm01EVH_HfQgXivq-12" value="" style="rounded=1;whiteSpace=wrap;html=1;" vertex="1" parent="1">
          <mxGeometry x="310" y="137.5" width="100" height="285" as="geometry" />
        </mxCell>
        <mxCell id="pt2DLm01EVH_HfQgXivq-14" value="" style="ellipse;whiteSpace=wrap;html=1;aspect=fixed;" vertex="1" parent="1">
          <mxGeometry x="320" y="152.5" width="80" height="80" as="geometry" />
        </mxCell>
        <mxCell id="pt2DLm01EVH_HfQgXivq-15" value="" style="ellipse;whiteSpace=wrap;html=1;aspect=fixed;" vertex="1" parent="1">
          <mxGeometry x="320" y="242.5" width="80" height="80" as="geometry" />
        </mxCell>
        <mxCell id="pt2DLm01EVH_HfQgXivq-16" value="" style="ellipse;whiteSpace=wrap;html=1;aspect=fixed;" vertex="1" parent="1">
          <mxGeometry x="320" y="332.5" width="80" height="80" as="geometry" />
        </mxCell>
        <mxCell id="pt2DLm01EVH_HfQgXivq-17" value="" style="rounded=1;whiteSpace=wrap;html=1;" vertex="1" parent="1">
          <mxGeometry x="450" y="200" width="100" height="105" as="geometry" />
        </mxCell>
        <mxCell id="pt2DLm01EVH_HfQgXivq-20" value="" style="ellipse;whiteSpace=wrap;html=1;aspect=fixed;" vertex="1" parent="1">
          <mxGeometry x="460" y="215" width="80" height="80" as="geometry" />
        </mxCell>
      </root>
    </mxGraphModel>
  </diagram>
</mxfile>
